<svg viewBox="0 0 150 188" xmlns="http://www.w3.org/2000/svg">
  <g stroke="none" stroke-width="1" fill="none" fill-rule="evenodd" stroke-linecap="round">
    <g transform="translate(-809 -889)" stroke="#945541" stroke-width="5">
      <g transform="translate(811.343 891.012)">
        <path d="M14.48 182.988c3.75-14.412 13.264-23.122 28.54-26.131 22.916-4.514 40.31.44 52.046-13.187 7.824-9.084 14.963-25.457 21.418-49.117-20.994 8.246-45.482 10.77-73.463 7.571-41.972-4.796-65.924-35.71 33.237-31.795 56.95 2.248 51.589 20.789-2.88 23.727" />
        <path d="M70.027 93.988H58.704c-4.654 0-39.463-3.174-36.914-10.146 1.382-3.78 13.45-5.454 36.203-5.025-1.148-8.904 4.011-14.61 15.478-17.116 17.2-3.76 12.444-18.91 8.142-23.629-4.302-4.719-7.05-5.004-19.048-9.8-12-4.798-11.598-15.067-6.345-27.284" />
        <path d="M6.657 126.988c-6.456-13.533-7.702-25.533-3.738-36" />
        <path d="M115.657 132.988c5.482-2.674 11.893-6.412 19.234-11.214 11.01-7.203 13.439-22.593 3.52-29.057-9.917-6.465-23.853 6.234-14.53 20.898" />
      </g>
    </g>
  </g>
</svg>
